# xmcd
#
# Track frame offsets: 
#        150
#        11820
#        26292
#        45418
#        67876
#        87529
#        105744
#        121654
#        141054
#        157447
#        190600
#
# Disc length: 2915 seconds
#
# Revision: 0
# Processed by: cddbd v1.5.2PL0 Copyright (c) Steve Scherf et al.
# Submitted via: ExactAudioCopy v1.0b1
#
DISCID=890b610b
DTITLE=The Veldman Brothers - Spreadin' Around
DYEAR=2011
DGENRE=Blues
TTITLE0=Spreadin' Around
TTITLE1=Heading For The Door
TTITLE2=Need To Know
TTITLE3=Leavin'
TTITLE4=Evil
TTITLE5=Target
TTITLE6=B-Low
TTITLE7=Everyday I Play The Blues
TTITLE8=Tell Your Daddy
TTITLE9=Saw You There
TTITLE10=Questions
EXTD=
EXTT0=
EXTT1=
EXTT2=
EXTT3=
EXTT4=
EXTT5=
EXTT6=
EXTT7=
EXTT8=
EXTT9=
EXTT10=
PLAYORDER=
